<svg width="380" height="272" viewBox="0 0 380 272" fill="none" xmlns="http://www.w3.org/2000/svg">
<rect width="8.02031" height="8.02031" rx="4.01016" transform="matrix(0.707107 0.707106 -0.707107 0.707106 247.296 48.302)" fill="#9CA3AF"/>
<rect width="8.02031" height="8.02031" rx="4.01016" transform="matrix(0.707107 0.707106 -0.707107 0.707106 132.454 163.144)" fill="#9CA3AF"/>
<rect width="8.02031" height="8.02031" rx="4.01016" transform="matrix(-0.707107 0.707106 -0.707107 -0.707106 252.968 168.816)" fill="#9CA3AF"/>
<rect width="8.02031" height="8.02031" rx="4.01016" transform="matrix(-0.707107 0.707106 -0.707107 -0.707106 138.125 53.973)" fill="#9CA3AF"/>
<rect x="193.885" y="196.61" width="8.02032" height="8.02031" rx="4.01015" transform="rotate(-180 193.885 196.61)" fill="#9CA3AF"/>
<rect x="193.885" y="34.1989" width="8.02032" height="8.02031" rx="4.01015" transform="rotate(-180 193.885 34.1989)" fill="#9CA3AF"/>
<rect x="275.091" y="107.384" width="8.02031" height="8.02032" rx="4.01015" transform="rotate(90 275.091 107.384)" fill="#9CA3AF"/>
<rect x="112.68" y="107.384" width="8.02031" height="8.02032" rx="4.01015" transform="rotate(90 112.68 107.384)" fill="#9CA3AF"/>
<rect width="8.02031" height="8.02032" rx="4.01015" transform="matrix(0.375721 0.926733 -0.926733 0.37572 267.341 75.6608)" fill="#9CA3AF"/>
<rect width="8.02031" height="8.02032" rx="4.01015" transform="matrix(0.375721 0.926733 -0.926733 0.37572 116.829 136.682)" fill="#9CA3AF"/>
<rect width="8.02032" height="8.02031" rx="4.01015" transform="matrix(-0.926733 0.37572 -0.375721 -0.926733 225.609 188.86)" fill="#9CA3AF"/>
<rect width="8.02032" height="8.02031" rx="4.01015" transform="matrix(-0.926733 0.37572 -0.375721 -0.926733 164.588 38.348)" fill="#9CA3AF"/>
<rect width="8.02032" height="8.02031" rx="4.01015" transform="matrix(-0.920974 -0.389624 0.389625 -0.920974 160.366 191.438)" fill="#9CA3AF"/>
<rect width="8.02032" height="8.02031" rx="4.01015" transform="matrix(-0.920974 -0.389624 0.389625 -0.920974 223.646 41.8618)" fill="#9CA3AF"/>
<rect width="8.02031" height="8.02032" rx="4.01015" transform="matrix(-0.389625 0.920974 -0.920974 -0.389624 269.92 140.903)" fill="#9CA3AF"/>
<rect width="8.02031" height="8.02032" rx="4.01015" transform="matrix(-0.389625 0.920974 -0.920974 -0.389624 120.343 77.6238)" fill="#9CA3AF"/>
<rect x="298.484" y="83.4104" width="10.5496" height="10.5496" rx="5.27479" transform="rotate(78.197 298.484 83.4104)" fill="#B4C1D4"/>
<rect x="89.3716" y="127.107" width="10.5496" height="10.5496" rx="5.27479" transform="rotate(78.197 89.3716 127.107)" fill="#B4C1D4"/>
<rect x="217.934" y="220.142" width="10.5496" height="10.5496" rx="5.27479" transform="rotate(168.197 217.934 220.142)" fill="#B4C1D4"/>
<rect x="174.237" y="11.0289" width="10.5496" height="10.5496" rx="5.27479" transform="rotate(168.197 174.237 11.0289)" fill="#B4C1D4"/>
<rect width="10.0254" height="11.0279" rx="5.0127" transform="matrix(-0.836793 -0.547519 0.54752 -0.836792 132.397 208.098)" fill="#B4C1D4"/>
<rect width="10.0254" height="11.0279" rx="5.0127" transform="matrix(-0.836793 -0.547519 0.54752 -0.836792 249.315 29.4084)" fill="#B4C1D4"/>
<rect width="10.0254" height="11.0279" rx="5.01269" transform="matrix(-0.54752 0.836792 -0.836793 -0.547519 286.384 168.678)" fill="#B4C1D4"/>
<rect width="10.0254" height="11.0279" rx="5.01269" transform="matrix(-0.54752 0.836792 -0.836793 -0.547519 107.694 51.7599)" fill="#B4C1D4"/>
<rect x="300.843" y="127.959" width="10.5496" height="10.5496" rx="5.27479" transform="rotate(101.128 300.843 127.959)" fill="#B4C1D4"/>
<rect x="91.2307" y="86.7284" width="10.5496" height="10.5496" rx="5.27479" transform="rotate(101.128 91.2307 86.7284)" fill="#B4C1D4"/>
<rect x="173.385" y="222.501" width="10.5496" height="10.5496" rx="5.27479" transform="rotate(-168.872 173.385 222.501)" fill="#B4C1D4"/>
<rect x="214.617" y="12.8885" width="10.5496" height="10.5496" rx="5.27479" transform="rotate(-168.872 214.617 12.8885)" fill="#B4C1D4"/>
<rect width="10.5496" height="10.5496" rx="5.2748" transform="matrix(-0.557338 -0.830286 0.830287 -0.557337 99.7168 178.352)" fill="#B4C1D4"/>
<rect width="10.5496" height="10.5496" rx="5.2748" transform="matrix(-0.557338 -0.830286 0.830287 -0.557337 277.09 59.2888)" fill="#B4C1D4"/>
<rect width="10.5496" height="10.5496" rx="5.2748" transform="matrix(-0.830287 0.557337 -0.557338 -0.830286 256.695 201.628)" fill="#B4C1D4"/>
<rect width="10.5496" height="10.5496" rx="5.2748" transform="matrix(-0.830287 0.557337 -0.557338 -0.830286 137.631 24.2543)" fill="#B4C1D4"/>
<rect opacity="0.1" width="122.31" height="122.31" rx="61.1549" transform="matrix(1 0 -1.68587e-06 1 129.291 50.8107)" fill="#445A78"/>
<rect x="137.548" y="59.2622" width="106.269" height="105.267" rx="52.6333" fill="#445A78"/>
<path d="M167.457 111.985H167.456V112.015V139H201.943L174.943 112L167.457 111.985Z" fill="white"/>
<path d="M167.457 111.985H167.456V112.015V139H201.943L174.943 112L167.457 111.985Z" fill="url(#paint0_linear_4152_743)"/>
<path d="M204.252 111.985L189.59 126.648L201.882 138.94L216.544 124.277L204.252 111.985Z" fill="url(#paint1_linear_4152_743)"/>
<path d="M201.882 85.0318L189.59 97.3237L204.253 111.986L216.545 99.694L201.882 85.0318Z" fill="url(#paint2_linear_4152_743)"/>
<path d="M167.456 119.487L201.943 85H167.456V111.985H167.457L167.456 119.487Z" fill="white"/>
<path d="M86.6195 268V258.732H87.9915V268H86.6195ZM83.5115 259.012V257.78H91.0995V259.012H83.5115ZM96.7914 268V265.76H96.5674V263.17C96.5674 262.657 96.4321 262.269 96.1614 262.008C95.9001 261.747 95.5128 261.616 94.9994 261.616C94.7101 261.616 94.4114 261.621 94.1034 261.63C93.7954 261.639 93.5014 261.649 93.2214 261.658C92.9414 261.667 92.6988 261.681 92.4934 261.7V260.524C92.6988 260.505 92.9134 260.491 93.1374 260.482C93.3708 260.463 93.6088 260.454 93.8514 260.454C94.0941 260.445 94.3274 260.44 94.5514 260.44C95.3168 260.44 95.9421 260.533 96.4274 260.72C96.9128 260.897 97.2721 261.191 97.5054 261.602C97.7388 262.013 97.8554 262.568 97.8554 263.268V268H96.7914ZM94.3414 268.196C93.7814 268.196 93.2961 268.103 92.8854 267.916C92.4841 267.72 92.1714 267.44 91.9474 267.076C91.7328 266.712 91.6254 266.273 91.6254 265.76C91.6254 265.228 91.7421 264.785 91.9754 264.43C92.2181 264.075 92.5681 263.809 93.0254 263.632C93.4828 263.445 94.0334 263.352 94.6774 263.352H96.7074V264.36H94.6214C94.0801 264.36 93.6648 264.491 93.3754 264.752C93.0861 265.013 92.9414 265.349 92.9414 265.76C92.9414 266.171 93.0861 266.502 93.3754 266.754C93.6648 267.006 94.0801 267.132 94.6214 267.132C94.9388 267.132 95.2421 267.076 95.5314 266.964C95.8208 266.843 96.0588 266.647 96.2454 266.376C96.4414 266.096 96.5488 265.713 96.5674 265.228L96.9314 265.76C96.8848 266.292 96.7541 266.74 96.5394 267.104C96.3341 267.459 96.0448 267.729 95.6714 267.916C95.3074 268.103 94.8641 268.196 94.3414 268.196ZM100.322 270.8V260.524H101.386V263.758L101.134 263.73C101.181 262.927 101.349 262.274 101.638 261.77C101.937 261.257 102.324 260.879 102.8 260.636C103.276 260.393 103.794 260.272 104.354 260.272C104.896 260.272 105.386 260.375 105.824 260.58C106.272 260.785 106.655 261.065 106.972 261.42C107.29 261.775 107.532 262.185 107.7 262.652C107.868 263.119 107.952 263.613 107.952 264.136V264.388C107.952 264.911 107.864 265.405 107.686 265.872C107.509 266.339 107.257 266.749 106.93 267.104C106.613 267.459 106.23 267.739 105.782 267.944C105.344 268.149 104.858 268.252 104.326 268.252C103.794 268.252 103.286 268.135 102.8 267.902C102.315 267.669 101.914 267.291 101.596 266.768C101.279 266.245 101.097 265.559 101.05 264.71L101.666 265.83V270.8H100.322ZM104.116 267.076C104.62 267.076 105.059 266.959 105.432 266.726C105.806 266.483 106.095 266.152 106.3 265.732C106.506 265.303 106.608 264.813 106.608 264.262C106.608 263.702 106.506 263.212 106.3 262.792C106.095 262.372 105.806 262.045 105.432 261.812C105.059 261.569 104.62 261.448 104.116 261.448C103.668 261.448 103.253 261.551 102.87 261.756C102.488 261.952 102.18 262.241 101.946 262.624C101.722 262.997 101.61 263.45 101.61 263.982V264.626C101.61 265.139 101.727 265.578 101.96 265.942C102.194 266.306 102.502 266.586 102.884 266.782C103.267 266.978 103.678 267.076 104.116 267.076ZM116.072 268.084C115.512 268.084 115.027 268.005 114.616 267.846C114.215 267.687 113.902 267.417 113.678 267.034C113.463 266.642 113.356 266.115 113.356 265.452V258.256H114.644V265.62C114.644 266.021 114.751 266.334 114.966 266.558C115.19 266.773 115.503 266.88 115.904 266.88H117.22V268.084H116.072ZM112.068 261.532V260.524H117.22V261.532H112.068ZM122.51 268.252C121.857 268.252 121.283 268.14 120.788 267.916C120.294 267.692 119.874 267.398 119.528 267.034C119.192 266.661 118.936 266.245 118.758 265.788C118.59 265.331 118.506 264.864 118.506 264.388V264.136C118.506 263.66 118.595 263.193 118.772 262.736C118.95 262.269 119.211 261.854 119.556 261.49C119.902 261.117 120.322 260.823 120.816 260.608C121.311 260.384 121.876 260.272 122.51 260.272C123.145 260.272 123.71 260.384 124.204 260.608C124.699 260.823 125.119 261.117 125.464 261.49C125.81 261.854 126.071 262.269 126.248 262.736C126.426 263.193 126.514 263.66 126.514 264.136V264.388C126.514 264.864 126.426 265.331 126.248 265.788C126.08 266.245 125.824 266.661 125.478 267.034C125.142 267.398 124.727 267.692 124.232 267.916C123.738 268.14 123.164 268.252 122.51 268.252ZM122.51 267.048C123.07 267.048 123.546 266.927 123.938 266.684C124.34 266.432 124.643 266.096 124.848 265.676C125.063 265.256 125.17 264.785 125.17 264.262C125.17 263.73 125.063 263.254 124.848 262.834C124.634 262.414 124.326 262.083 123.924 261.84C123.532 261.597 123.061 261.476 122.51 261.476C121.969 261.476 121.498 261.597 121.096 261.84C120.695 262.083 120.387 262.414 120.172 262.834C119.958 263.254 119.85 263.73 119.85 264.262C119.85 264.785 119.953 265.256 120.158 265.676C120.373 266.096 120.676 266.432 121.068 266.684C121.47 266.927 121.95 267.048 122.51 267.048ZM135.661 268.252C135.045 268.252 134.494 268.117 134.009 267.846C133.533 267.575 133.155 267.183 132.875 266.67C132.595 266.147 132.441 265.522 132.413 264.794H132.777V268H131.713V257.78H133.057V262.75L132.581 263.772C132.618 262.96 132.781 262.297 133.071 261.784C133.36 261.271 133.738 260.893 134.205 260.65C134.681 260.398 135.203 260.272 135.773 260.272C136.305 260.272 136.79 260.375 137.229 260.58C137.667 260.776 138.045 261.051 138.363 261.406C138.68 261.751 138.923 262.157 139.091 262.624C139.259 263.081 139.343 263.576 139.343 264.108V264.36C139.343 264.892 139.254 265.391 139.077 265.858C138.909 266.325 138.661 266.74 138.335 267.104C138.008 267.459 137.616 267.739 137.159 267.944C136.711 268.149 136.211 268.252 135.661 268.252ZM135.507 267.076C136.011 267.076 136.449 266.955 136.823 266.712C137.196 266.469 137.485 266.138 137.691 265.718C137.896 265.289 137.999 264.794 137.999 264.234C137.999 263.674 137.891 263.184 137.677 262.764C137.471 262.344 137.182 262.022 136.809 261.798C136.435 261.565 136.001 261.448 135.507 261.448C135.059 261.448 134.643 261.551 134.261 261.756C133.878 261.952 133.57 262.241 133.337 262.624C133.113 262.997 133.001 263.45 133.001 263.982V264.626C133.001 265.139 133.117 265.578 133.351 265.942C133.584 266.306 133.892 266.586 134.275 266.782C134.657 266.978 135.068 267.076 135.507 267.076ZM144.809 268.252C144.156 268.252 143.582 268.14 143.087 267.916C142.592 267.692 142.172 267.398 141.827 267.034C141.491 266.661 141.234 266.245 141.057 265.788C140.889 265.331 140.805 264.864 140.805 264.388V264.136C140.805 263.66 140.894 263.193 141.071 262.736C141.248 262.269 141.51 261.854 141.855 261.49C142.2 261.117 142.62 260.823 143.115 260.608C143.61 260.384 144.174 260.272 144.809 260.272C145.444 260.272 146.008 260.384 146.503 260.608C146.998 260.823 147.418 261.117 147.763 261.49C148.108 261.854 148.37 262.269 148.547 262.736C148.724 263.193 148.813 263.66 148.813 264.136V264.388C148.813 264.864 148.724 265.331 148.547 265.788C148.379 266.245 148.122 266.661 147.777 267.034C147.441 267.398 147.026 267.692 146.531 267.916C146.036 268.14 145.462 268.252 144.809 268.252ZM144.809 267.048C145.369 267.048 145.845 266.927 146.237 266.684C146.638 266.432 146.942 266.096 147.147 265.676C147.362 265.256 147.469 264.785 147.469 264.262C147.469 263.73 147.362 263.254 147.147 262.834C146.932 262.414 146.624 262.083 146.223 261.84C145.831 261.597 145.36 261.476 144.809 261.476C144.268 261.476 143.796 261.597 143.395 261.84C142.994 262.083 142.686 262.414 142.471 262.834C142.256 263.254 142.149 263.73 142.149 264.262C142.149 264.785 142.252 265.256 142.457 265.676C142.672 266.096 142.975 266.432 143.367 266.684C143.768 266.927 144.249 267.048 144.809 267.048ZM154.27 268.252C153.617 268.252 153.043 268.14 152.548 267.916C152.053 267.692 151.633 267.398 151.288 267.034C150.952 266.661 150.695 266.245 150.518 265.788C150.35 265.331 150.266 264.864 150.266 264.388V264.136C150.266 263.66 150.355 263.193 150.532 262.736C150.709 262.269 150.971 261.854 151.316 261.49C151.661 261.117 152.081 260.823 152.576 260.608C153.071 260.384 153.635 260.272 154.27 260.272C154.905 260.272 155.469 260.384 155.964 260.608C156.459 260.823 156.879 261.117 157.224 261.49C157.569 261.854 157.831 262.269 158.008 262.736C158.185 263.193 158.274 263.66 158.274 264.136V264.388C158.274 264.864 158.185 265.331 158.008 265.788C157.84 266.245 157.583 266.661 157.238 267.034C156.902 267.398 156.487 267.692 155.992 267.916C155.497 268.14 154.923 268.252 154.27 268.252ZM154.27 267.048C154.83 267.048 155.306 266.927 155.698 266.684C156.099 266.432 156.403 266.096 156.608 265.676C156.823 265.256 156.93 264.785 156.93 264.262C156.93 263.73 156.823 263.254 156.608 262.834C156.393 262.414 156.085 262.083 155.684 261.84C155.292 261.597 154.821 261.476 154.27 261.476C153.729 261.476 153.257 261.597 152.856 261.84C152.455 262.083 152.147 262.414 151.932 262.834C151.717 263.254 151.61 263.73 151.61 264.262C151.61 264.785 151.713 265.256 151.918 265.676C152.133 266.096 152.436 266.432 152.828 266.684C153.229 266.927 153.71 267.048 154.27 267.048ZM162.737 268.224C161.757 268.224 160.996 268.014 160.455 267.594C159.923 267.174 159.648 266.6 159.629 265.872H160.889C160.908 266.161 161.052 266.437 161.323 266.698C161.603 266.95 162.074 267.076 162.737 267.076C163.334 267.076 163.792 266.959 164.109 266.726C164.426 266.483 164.585 266.189 164.585 265.844C164.585 265.536 164.468 265.298 164.235 265.13C164.002 264.953 163.624 264.836 163.101 264.78L162.289 264.696C161.58 264.621 161.001 264.411 160.553 264.066C160.105 263.711 159.881 263.217 159.881 262.582C159.881 262.106 160.002 261.7 160.245 261.364C160.488 261.019 160.824 260.757 161.253 260.58C161.682 260.393 162.177 260.3 162.737 260.3C163.577 260.3 164.258 260.487 164.781 260.86C165.304 261.233 165.574 261.789 165.593 262.526H164.333C164.324 262.227 164.184 261.975 163.913 261.77C163.652 261.555 163.26 261.448 162.737 261.448C162.214 261.448 161.818 261.555 161.547 261.77C161.276 261.985 161.141 262.255 161.141 262.582C161.141 262.862 161.234 263.086 161.421 263.254C161.617 263.422 161.934 263.529 162.373 263.576L163.185 263.66C163.988 263.744 164.632 263.968 165.117 264.332C165.602 264.687 165.845 265.191 165.845 265.844C165.845 266.311 165.71 266.726 165.439 267.09C165.178 267.445 164.814 267.725 164.347 267.93C163.88 268.126 163.344 268.224 162.737 268.224ZM170.705 268.084C170.145 268.084 169.66 268.005 169.249 267.846C168.848 267.687 168.535 267.417 168.311 267.034C168.096 266.642 167.989 266.115 167.989 265.452V258.256H169.277V265.62C169.277 266.021 169.384 266.334 169.599 266.558C169.823 266.773 170.136 266.88 170.537 266.88H171.853V268.084H170.705ZM166.701 261.532V260.524H171.853V261.532H166.701ZM176.435 270.912V269.708H177.513C177.831 269.708 178.097 269.666 178.311 269.582C178.535 269.507 178.717 269.377 178.857 269.19C179.007 269.003 179.128 268.756 179.221 268.448L181.573 260.524H182.889L180.397 268.798C180.248 269.293 180.038 269.694 179.767 270.002C179.497 270.319 179.165 270.548 178.773 270.688C178.391 270.837 177.943 270.912 177.429 270.912H176.435ZM178.717 267.832V266.712H180.341V267.832H178.717ZM178.577 267.832L175.903 260.524H177.275L179.837 267.832H178.577ZM187.903 268.252C187.25 268.252 186.676 268.14 186.181 267.916C185.686 267.692 185.266 267.398 184.921 267.034C184.585 266.661 184.328 266.245 184.151 265.788C183.983 265.331 183.899 264.864 183.899 264.388V264.136C183.899 263.66 183.988 263.193 184.165 262.736C184.342 262.269 184.604 261.854 184.949 261.49C185.294 261.117 185.714 260.823 186.209 260.608C186.704 260.384 187.268 260.272 187.903 260.272C188.538 260.272 189.102 260.384 189.597 260.608C190.092 260.823 190.512 261.117 190.857 261.49C191.202 261.854 191.464 262.269 191.641 262.736C191.818 263.193 191.907 263.66 191.907 264.136V264.388C191.907 264.864 191.818 265.331 191.641 265.788C191.473 266.245 191.216 266.661 190.871 267.034C190.535 267.398 190.12 267.692 189.625 267.916C189.13 268.14 188.556 268.252 187.903 268.252ZM187.903 267.048C188.463 267.048 188.939 266.927 189.331 266.684C189.732 266.432 190.036 266.096 190.241 265.676C190.456 265.256 190.563 264.785 190.563 264.262C190.563 263.73 190.456 263.254 190.241 262.834C190.026 262.414 189.718 262.083 189.317 261.84C188.925 261.597 188.454 261.476 187.903 261.476C187.362 261.476 186.89 261.597 186.489 261.84C186.088 262.083 185.78 262.414 185.565 262.834C185.35 263.254 185.243 263.73 185.243 264.262C185.243 264.785 185.346 265.256 185.551 265.676C185.766 266.096 186.069 266.432 186.461 266.684C186.862 266.927 187.343 267.048 187.903 267.048ZM196.51 268.224C195.623 268.224 194.942 267.935 194.466 267.356C193.99 266.777 193.752 265.942 193.752 264.85V260.51H195.096V265.116C195.096 265.704 195.255 266.166 195.572 266.502C195.889 266.829 196.319 266.992 196.86 266.992C197.42 266.992 197.877 266.815 198.232 266.46C198.587 266.096 198.764 265.601 198.764 264.976V260.51H200.108V268H199.044V264.794H199.212C199.212 265.531 199.114 266.157 198.918 266.67C198.722 267.174 198.428 267.561 198.036 267.832C197.653 268.093 197.163 268.224 196.566 268.224H196.51ZM202.711 268V260.524H203.775V263.604H203.719C203.719 262.512 203.957 261.714 204.433 261.21C204.918 260.697 205.642 260.44 206.603 260.44H206.855V261.644H206.379C205.632 261.644 205.058 261.845 204.657 262.246C204.256 262.638 204.055 263.207 204.055 263.954V268H202.711ZM212.927 268.056V266.852H215.783C216.333 266.852 216.758 266.698 217.057 266.39C217.365 266.073 217.519 265.653 217.519 265.13C217.519 264.598 217.369 264.183 217.071 263.884C216.772 263.576 216.343 263.422 215.783 263.422H212.927V262.526H215.587C216.24 262.526 216.814 262.605 217.309 262.764C217.813 262.923 218.205 263.189 218.485 263.562C218.774 263.926 218.919 264.425 218.919 265.06V265.256C218.919 265.853 218.797 266.362 218.555 266.782C218.312 267.193 217.943 267.51 217.449 267.734C216.954 267.949 216.333 268.056 215.587 268.056H212.927ZM211.835 268.056V257.724H213.207V268.056H211.835ZM212.927 263.17V262.274H215.405C215.983 262.274 216.408 262.12 216.679 261.812C216.959 261.495 217.099 261.093 217.099 260.608C217.099 260.113 216.959 259.712 216.679 259.404C216.408 259.087 215.983 258.928 215.405 258.928H212.927V257.724H215.167C216.287 257.724 217.122 257.962 217.673 258.438C218.223 258.905 218.499 259.581 218.499 260.468V260.664C218.499 261.289 218.359 261.789 218.079 262.162C217.799 262.526 217.407 262.787 216.903 262.946C216.408 263.095 215.829 263.17 215.167 263.17H212.927ZM224.544 268.252C223.89 268.252 223.316 268.14 222.822 267.916C222.327 267.692 221.907 267.398 221.562 267.034C221.226 266.661 220.969 266.245 220.792 265.788C220.624 265.331 220.54 264.864 220.54 264.388V264.136C220.54 263.66 220.628 263.193 220.806 262.736C220.983 262.269 221.244 261.854 221.59 261.49C221.935 261.117 222.355 260.823 222.85 260.608C223.344 260.384 223.909 260.272 224.544 260.272C225.178 260.272 225.743 260.384 226.238 260.608C226.732 260.823 227.152 261.117 227.498 261.49C227.843 261.854 228.104 262.269 228.282 262.736C228.459 263.193 228.548 263.66 228.548 264.136V264.388C228.548 264.864 228.459 265.331 228.282 265.788C228.114 266.245 227.857 266.661 227.512 267.034C227.176 267.398 226.76 267.692 226.266 267.916C225.771 268.14 225.197 268.252 224.544 268.252ZM224.544 267.048C225.104 267.048 225.58 266.927 225.972 266.684C226.373 266.432 226.676 266.096 226.882 265.676C227.096 265.256 227.204 264.785 227.204 264.262C227.204 263.73 227.096 263.254 226.882 262.834C226.667 262.414 226.359 262.083 225.958 261.84C225.566 261.597 225.094 261.476 224.544 261.476C224.002 261.476 223.531 261.597 223.13 261.84C222.728 262.083 222.42 262.414 222.206 262.834C221.991 263.254 221.884 263.73 221.884 264.262C221.884 264.785 221.986 265.256 222.192 265.676C222.406 266.096 222.71 266.432 223.102 266.684C223.503 266.927 223.984 267.048 224.544 267.048ZM230.56 268V260.524H231.624V263.73H231.456C231.456 262.993 231.554 262.372 231.75 261.868C231.956 261.355 232.264 260.967 232.674 260.706C233.085 260.435 233.603 260.3 234.228 260.3H234.284C235.227 260.3 235.922 260.594 236.37 261.182C236.828 261.77 237.056 262.619 237.056 263.73V268H235.712V263.45C235.712 262.871 235.549 262.409 235.222 262.064C234.896 261.709 234.448 261.532 233.878 261.532C233.29 261.532 232.814 261.714 232.45 262.078C232.086 262.442 231.904 262.927 231.904 263.534V268H230.56ZM242.638 268.252C242.106 268.252 241.616 268.154 241.168 267.958C240.72 267.762 240.328 267.487 239.992 267.132C239.665 266.777 239.408 266.367 239.222 265.9C239.044 265.433 238.956 264.929 238.956 264.388V264.136C238.956 263.604 239.044 263.105 239.222 262.638C239.399 262.171 239.646 261.761 239.964 261.406C240.29 261.051 240.673 260.776 241.112 260.58C241.56 260.375 242.054 260.272 242.596 260.272C243.165 260.272 243.683 260.393 244.15 260.636C244.616 260.869 244.999 261.238 245.298 261.742C245.596 262.246 245.764 262.899 245.802 263.702L245.242 262.806V257.78H246.586V268H245.522V264.682H245.914C245.876 265.531 245.699 266.222 245.382 266.754C245.064 267.277 244.663 267.659 244.178 267.902C243.702 268.135 243.188 268.252 242.638 268.252ZM242.82 267.076C243.277 267.076 243.692 266.973 244.066 266.768C244.439 266.563 244.738 266.269 244.962 265.886C245.186 265.494 245.298 265.037 245.298 264.514V263.87C245.298 263.357 245.181 262.923 244.948 262.568C244.724 262.204 244.42 261.929 244.038 261.742C243.664 261.546 243.254 261.448 242.806 261.448C242.311 261.448 241.872 261.565 241.49 261.798C241.116 262.031 240.822 262.358 240.608 262.778C240.402 263.198 240.3 263.693 240.3 264.262C240.3 264.831 240.407 265.331 240.622 265.76C240.836 266.18 241.135 266.507 241.518 266.74C241.9 266.964 242.334 267.076 242.82 267.076ZM252.353 270.8V260.524H253.417V263.758L253.165 263.73C253.212 262.927 253.38 262.274 253.669 261.77C253.968 261.257 254.355 260.879 254.831 260.636C255.307 260.393 255.825 260.272 256.385 260.272C256.927 260.272 257.417 260.375 257.855 260.58C258.303 260.785 258.686 261.065 259.003 261.42C259.321 261.775 259.563 262.185 259.731 262.652C259.899 263.119 259.983 263.613 259.983 264.136V264.388C259.983 264.911 259.895 265.405 259.717 265.872C259.54 266.339 259.288 266.749 258.961 267.104C258.644 267.459 258.261 267.739 257.813 267.944C257.375 268.149 256.889 268.252 256.357 268.252C255.825 268.252 255.317 268.135 254.831 267.902C254.346 267.669 253.945 267.291 253.627 266.768C253.31 266.245 253.128 265.559 253.081 264.71L253.697 265.83V270.8H252.353ZM256.147 267.076C256.651 267.076 257.09 266.959 257.463 266.726C257.837 266.483 258.126 266.152 258.331 265.732C258.537 265.303 258.639 264.813 258.639 264.262C258.639 263.702 258.537 263.212 258.331 262.792C258.126 262.372 257.837 262.045 257.463 261.812C257.09 261.569 256.651 261.448 256.147 261.448C255.699 261.448 255.284 261.551 254.901 261.756C254.519 261.952 254.211 262.241 253.977 262.624C253.753 262.997 253.641 263.45 253.641 263.982V264.626C253.641 265.139 253.758 265.578 253.991 265.942C254.225 266.306 254.533 266.586 254.915 266.782C255.298 266.978 255.709 267.076 256.147 267.076ZM265.45 268.252C264.796 268.252 264.222 268.14 263.728 267.916C263.233 267.692 262.813 267.398 262.468 267.034C262.132 266.661 261.875 266.245 261.698 265.788C261.53 265.331 261.446 264.864 261.446 264.388V264.136C261.446 263.66 261.534 263.193 261.712 262.736C261.889 262.269 262.15 261.854 262.496 261.49C262.841 261.117 263.261 260.823 263.756 260.608C264.25 260.384 264.815 260.272 265.45 260.272C266.084 260.272 266.649 260.384 267.144 260.608C267.638 260.823 268.058 261.117 268.404 261.49C268.749 261.854 269.01 262.269 269.188 262.736C269.365 263.193 269.454 263.66 269.454 264.136V264.388C269.454 264.864 269.365 265.331 269.188 265.788C269.02 266.245 268.763 266.661 268.418 267.034C268.082 267.398 267.666 267.692 267.172 267.916C266.677 268.14 266.103 268.252 265.45 268.252ZM265.45 267.048C266.01 267.048 266.486 266.927 266.878 266.684C267.279 266.432 267.582 266.096 267.788 265.676C268.002 265.256 268.11 264.785 268.11 264.262C268.11 263.73 268.002 263.254 267.788 262.834C267.573 262.414 267.265 262.083 266.864 261.84C266.472 261.597 266 261.476 265.45 261.476C264.908 261.476 264.437 261.597 264.036 261.84C263.634 262.083 263.326 262.414 263.112 262.834C262.897 263.254 262.79 263.73 262.79 264.262C262.79 264.785 262.892 265.256 263.098 265.676C263.312 266.096 263.616 266.432 264.008 266.684C264.409 266.927 264.89 267.048 265.45 267.048ZM271.831 268V260.524H273.175V268H271.831ZM270.683 261.588V260.524H273.175V261.588H270.683ZM272.209 259.32C271.91 259.32 271.686 259.241 271.537 259.082C271.397 258.923 271.327 258.723 271.327 258.48C271.327 258.237 271.397 258.037 271.537 257.878C271.686 257.719 271.91 257.64 272.209 257.64C272.507 257.64 272.727 257.719 272.867 257.878C273.016 258.037 273.091 258.237 273.091 258.48C273.091 258.723 273.016 258.923 272.867 259.082C272.727 259.241 272.507 259.32 272.209 259.32ZM275.773 268V260.524H276.837V263.73H276.669C276.669 262.993 276.767 262.372 276.963 261.868C277.169 261.355 277.477 260.967 277.887 260.706C278.298 260.435 278.816 260.3 279.441 260.3H279.497C280.44 260.3 281.135 260.594 281.583 261.182C282.041 261.77 282.269 262.619 282.269 263.73V268H280.925V263.45C280.925 262.871 280.762 262.409 280.435 262.064C280.109 261.709 279.661 261.532 279.091 261.532C278.503 261.532 278.027 261.714 277.663 262.078C277.299 262.442 277.117 262.927 277.117 263.534V268H275.773ZM287.64 268.084C287.08 268.084 286.595 268.005 286.184 267.846C285.783 267.687 285.47 267.417 285.246 267.034C285.032 266.642 284.924 266.115 284.924 265.452V258.256H286.212V265.62C286.212 266.021 286.32 266.334 286.534 266.558C286.758 266.773 287.071 266.88 287.472 266.88H288.788V268.084H287.64ZM283.636 261.532V260.524H288.788V261.532H283.636ZM293.085 268.224C292.105 268.224 291.344 268.014 290.803 267.594C290.271 267.174 289.995 266.6 289.977 265.872H291.237C291.255 266.161 291.4 266.437 291.671 266.698C291.951 266.95 292.422 267.076 293.085 267.076C293.682 267.076 294.139 266.959 294.457 266.726C294.774 266.483 294.933 266.189 294.933 265.844C294.933 265.536 294.816 265.298 294.583 265.13C294.349 264.953 293.971 264.836 293.449 264.78L292.637 264.696C291.927 264.621 291.349 264.411 290.901 264.066C290.453 263.711 290.229 263.217 290.229 262.582C290.229 262.106 290.35 261.7 290.593 261.364C290.835 261.019 291.171 260.757 291.601 260.58C292.03 260.393 292.525 260.3 293.085 260.3C293.925 260.3 294.606 260.487 295.129 260.86C295.651 261.233 295.922 261.789 295.941 262.526H294.681C294.671 262.227 294.531 261.975 294.261 261.77C293.999 261.555 293.607 261.448 293.085 261.448C292.562 261.448 292.165 261.555 291.895 261.77C291.624 261.985 291.489 262.255 291.489 262.582C291.489 262.862 291.582 263.086 291.769 263.254C291.965 263.422 292.282 263.529 292.721 263.576L293.533 263.66C294.335 263.744 294.979 263.968 295.465 264.332C295.95 264.687 296.193 265.191 296.193 265.844C296.193 266.311 296.057 266.726 295.787 267.09C295.525 267.445 295.161 267.725 294.695 267.93C294.228 268.126 293.691 268.224 293.085 268.224Z" fill="#B4C1D4"/>
<defs>
<linearGradient id="paint0_linear_4152_743" x1="184.699" y1="111.985" x2="184.699" y2="139" gradientUnits="userSpaceOnUse">
<stop stop-color="#D2D2D2"/>
<stop offset="1" stop-color="white" stop-opacity="0"/>
</linearGradient>
<linearGradient id="paint1_linear_4152_743" x1="196.921" y1="119.317" x2="209.213" y2="131.609" gradientUnits="userSpaceOnUse">
<stop stop-color="#E7E7E7"/>
<stop offset="1" stop-color="white"/>
</linearGradient>
<linearGradient id="paint2_linear_4152_743" x1="195.736" y1="91.1777" x2="210.399" y2="105.84" gradientUnits="userSpaceOnUse">
<stop stop-color="#D6D6D6"/>
<stop offset="1" stop-color="white"/>
</linearGradient>
</defs>
</svg>
