<svg width="84" height="99" viewBox="0 0 84 99" fill="none" xmlns="http://www.w3.org/2000/svg">
<g filter="url(#filter0_dd_4152_719)">
<g clip-path="url(#clip0_4152_719)">
<rect x="-1.90103" y="43.2872" width="33.9776" height="33.9776" rx="6.79553" transform="rotate(-18.52 -1.90103 43.2872)" fill="#F0F0F0"/>
</g>
<path d="M9.58515 50.93L17.1003 45.3639L23.4567 64.3393C16.5852 63.827 12.5514 59.7848 11.6334 57.0444L9.58515 50.93Z" fill="#0500FF"/>
<path d="M26.4524 45.2797L17.1009 45.3637L23.4573 64.3391C28.6336 59.7909 29.4186 54.1346 28.5006 51.3941L26.4524 45.2797Z" fill="url(#paint0_linear_4152_719)"/>
<rect width="40.0539" height="40.5508" rx="9.65878" transform="matrix(0.992158 -0.124987 0.119942 0.992781 23.605 7.00403)" fill="#FFD490"/>
<path d="M56.7153 10.6107L46.6284 20.2134L48.0843 15.0991L56.7153 10.6107Z" fill="#E2761B" stroke="#E2761B" stroke-width="0.112367" stroke-linecap="round" stroke-linejoin="round"/>
<path d="M31.0957 13.753L43.124 20.7234L40.5664 16.022L31.0957 13.753ZM55.0642 30.2065L52.6638 35.097L59.201 36.0615L60.2628 29.671L55.0642 30.2065ZM32.2793 33.102L34.8423 39.048L40.9529 36.5328L37.4421 32.3671L32.2793 33.102Z" fill="#E4761B" stroke="#E4761B" stroke-width="0.112367" stroke-linecap="round" stroke-linejoin="round"/>
<path d="M39.1043 24.3952L37.6689 27.2768L43.9823 26.7858L42.932 20.0656L39.1043 24.3952ZM51.5178 22.8732L46.6922 19.5253L47.3841 26.3687L53.618 25.3213L51.5178 22.8732ZM40.9544 36.5304L44.4986 34.228L40.9301 32.0844L40.9544 36.5304ZM48.6587 33.7179L52.6653 35.0946L51.6037 30.7758L48.6587 33.7179Z" fill="#E4761B" stroke="#E4761B" stroke-width="0.112367" stroke-linecap="round" stroke-linejoin="round"/>
<path d="M52.6642 35.0958L48.6576 33.7191L49.2609 36.147L49.3547 37.1884L52.6642 35.0958ZM40.9533 36.5316L44.6703 37.7627L44.5208 36.7282L44.4974 34.2291L40.9533 36.5316Z" fill="#D7C1B3" stroke="#D7C1B3" stroke-width="0.112367" stroke-linecap="round" stroke-linejoin="round"/>
<path d="M43.7853 30.0821L40.5265 29.542L42.6216 28.2549L43.7853 30.0821ZM48.3469 29.5228L49.0347 27.4686L51.3898 28.2101L48.3469 29.5228Z" fill="#233447" stroke="#233447" stroke-width="0.112367" stroke-linecap="round" stroke-linejoin="round"/>
<path d="M40.9542 36.5382L40.9343 31.9445L37.4557 32.4729L40.9542 36.5382ZM51.5745 30.6399L52.6651 35.1024L55.0778 30.3123L51.5745 30.6399ZM53.6177 25.3291L47.3838 26.3764L48.359 29.5285L49.0468 27.4744L51.4018 28.2158L53.6177 25.3291ZM40.5274 29.5491L42.6337 28.2607L43.7862 30.0892L43.9821 26.7935L37.6686 27.2846L40.5274 29.5491Z" fill="#CD6116" stroke="#CD6116" stroke-width="0.112367" stroke-linecap="round" stroke-linejoin="round"/>
<path d="M37.6695 27.285L40.9307 32.0926L40.5284 29.5495L37.6695 27.285ZM51.4028 28.2162L51.6044 30.7839L53.6187 25.3295L51.4028 28.2162ZM43.983 26.7939L43.7871 30.0896L44.9895 33.8025L44.5428 28.7743L43.983 26.7939ZM47.3847 26.3768L47.3297 28.4213L48.0789 33.4237L48.3599 29.5289L47.3847 26.3768Z" fill="#E4751F" stroke="#E4751F" stroke-width="0.112367" stroke-linecap="round" stroke-linejoin="round"/>
<path d="M48.3588 29.5262L48.0779 33.4209L48.6584 33.7233L51.6033 30.7812L51.4017 28.2135L48.3588 29.5262ZM40.5273 29.5468L40.9297 32.0898L44.4982 34.2334L44.9884 33.7997L43.786 30.0868L40.5273 29.5468Z" fill="#F6851B" stroke="#F6851B" stroke-width="0.112367" stroke-linecap="round" stroke-linejoin="round"/>
<path d="M49.3564 37.1952L49.2627 36.1538L48.9538 35.9427L44.749 36.4582L44.5226 36.735L44.672 37.7695L40.955 36.5385L42.305 37.3918L45.0041 38.8156L49.2758 38.2919L51.5621 36.2568L52.6659 35.1026L49.3564 37.1952Z" fill="#C0AD9E" stroke="#C0AD9E" stroke-width="0.112367" stroke-linecap="round" stroke-linejoin="round"/>
<path d="M48.6575 33.7238L48.077 33.4214L44.9876 33.8002L44.4974 34.2339L44.5207 36.7329L44.7472 36.4561L48.9519 35.9406L49.2609 36.1518L48.6575 33.7238Z" fill="#161616" stroke="#161616" stroke-width="0.112367" stroke-linecap="round" stroke-linejoin="round"/>
<path d="M58.2589 19.3293L58.6491 14.6627L56.7143 10.6094L46.9613 19.8881L51.516 22.873L57.5583 23.8642L58.6675 22.2L58.0606 21.8668L58.8531 20.9433L58.0959 20.4927L58.9048 19.703L58.2589 19.3293ZM30.2083 18.1498L31.7143 22.5839L31.1667 23.1039L32.1424 23.6748L31.5276 24.2936L32.5197 24.9983L32.0113 25.4682L33.4785 26.8166L39.1024 24.395L42.8011 20.3982L31.0954 13.7505L30.2083 18.1498Z" fill="#763D16" stroke="#763D16" stroke-width="0.112367" stroke-linecap="round" stroke-linejoin="round"/>
<path d="M57.56 23.8691L51.5177 22.8779L53.6178 25.326L51.6035 30.7804L55.0779 30.3092L60.2641 29.6733L57.56 23.8691ZM39.1041 24.3999L33.4802 26.8214L32.2807 33.1043L37.4558 32.4698L40.9299 32.0891L37.6687 27.2815L39.1041 24.3999ZM47.3839 26.3733L46.963 19.893L48.0962 15.1012L40.5678 16.0243L42.8028 20.403L43.9822 26.7904L44.3649 28.8038L44.9886 33.799L48.0781 33.4202L47.4878 28.4209L47.3839 26.3733Z" fill="#F6851B" stroke="#F6851B" stroke-width="0.112367" stroke-linecap="round" stroke-linejoin="round"/>
<g clip-path="url(#clip1_4152_719)">
<g clip-path="url(#clip2_4152_719)">
<mask id="mask0_4152_719" style="mask-type:alpha" maskUnits="userSpaceOnUse" x="37" y="47" width="41" height="42">
<path d="M64.2652 48.3442L52.0722 47.9346C48.0285 47.7988 46.0068 47.7309 43.8102 48.3459C41.4082 49.1312 39.4814 50.9402 38.5464 53.2879C37.7941 55.4415 37.7345 57.4637 37.6153 61.5076L37.2559 73.7022C37.1367 77.7464 37.0771 79.768 37.701 81.9681C38.4959 84.3739 40.3124 86.3087 42.6634 87.2533C44.8195 88.0149 46.8411 88.0828 50.8848 88.2186L63.0778 88.6282C67.1215 88.7641 69.1428 88.832 71.3398 88.2166C73.7418 87.4316 75.6686 85.6227 76.6036 83.275C77.3559 81.1211 77.4155 79.0995 77.5347 75.0553L77.8941 62.8606C78.0133 58.8168 78.0729 56.7945 77.449 54.5947C76.654 52.1889 74.8376 50.2542 72.4866 49.3093C70.3302 48.548 68.3089 48.4801 64.2652 48.3442Z" fill="black"/>
</mask>
<g mask="url(#mask0_4152_719)">
<rect width="40.3015" height="40.3015" transform="matrix(0.999436 0.0335737 -0.0294627 0.999566 38.0293 47.4629)" fill="url(#paint1_linear_4152_719)"/>
</g>
<path d="M44.3664 60.445L46.3804 60.5127C56.7615 60.8614 64.929 69.5608 64.623 79.9433L64.5636 81.9575L68.5915 82.0928C69.7038 82.1302 70.632 81.2587 70.6648 80.1463C71.0692 66.4265 60.2764 54.9309 46.5585 54.4701C45.4462 54.4327 44.5179 55.3042 44.4852 56.4166L44.3664 60.445Z" fill="url(#paint2_radial_4152_719)"/>
<path d="M65.2943 79.9658L70.6648 80.1462C70.632 81.2586 69.7038 82.1301 68.5915 82.0928L65.235 81.98L65.2943 79.9658Z" fill="url(#paint3_linear_4152_719)"/>
<path d="M46.5585 54.4701L46.4001 59.8413L44.3862 59.7736L44.4852 56.4166C44.5179 55.3042 45.4462 54.4327 46.5585 54.4701Z" fill="url(#paint4_linear_4152_719)"/>
<path d="M44.3862 59.7736L46.4001 59.8413C57.1521 60.2025 65.6113 69.2125 65.2943 79.9659L65.235 81.9801L59.1931 81.7771L59.2525 79.7629C59.4711 72.3468 53.6372 66.133 46.222 65.8839L44.2081 65.8162L44.3862 59.7736Z" fill="url(#paint5_radial_4152_719)"/>
<path d="M59.9238 79.7855L65.2943 79.9659L65.235 81.9801L59.8645 81.7997L59.9238 79.7855Z" fill="url(#paint6_linear_4152_719)"/>
<path d="M44.2279 65.1448L44.3862 59.7736L46.4001 59.8413L46.2418 65.2125L44.2279 65.1448Z" fill="url(#paint7_linear_4152_719)"/>
<path d="M44.1289 68.5018C44.0962 69.6142 44.9712 70.5463 46.0835 70.5836C50.9033 70.7455 54.6954 74.7845 54.5533 79.605C54.5205 80.7174 55.3956 81.6495 56.5079 81.6869L59.8644 81.7996L59.9238 79.7854C60.1533 71.9985 54.0277 65.474 46.2418 65.2124L44.2279 65.1448L44.1289 68.5018Z" fill="url(#paint8_radial_4152_719)"/>
<path d="M54.5533 79.605L59.9238 79.7855L59.8644 81.7997L56.5079 81.6869C55.3956 81.6495 54.5205 80.7175 54.5533 79.605Z" fill="url(#paint9_radial_4152_719)"/>
<path d="M46.0835 70.5836C44.9712 70.5463 44.0962 69.6142 44.1289 68.5018L44.2279 65.1448L46.2418 65.2124L46.0835 70.5836Z" fill="url(#paint10_radial_4152_719)"/>
</g>
</g>
</g>
<defs>
<filter id="filter0_dd_4152_719" x="-4.90103" y="-0.000183105" width="86.2091" height="93.1002" filterUnits="userSpaceOnUse" color-interpolation-filters="sRGB">
<feFlood flood-opacity="0" result="BackgroundImageFix"/>
<feColorMatrix in="SourceAlpha" type="matrix" values="0 0 0 0 0 0 0 0 0 0 0 0 0 0 0 0 0 0 127 0" result="hardAlpha"/>
<feOffset dy="1"/>
<feGaussianBlur stdDeviation="1"/>
<feColorMatrix type="matrix" values="0 0 0 0 0.0627451 0 0 0 0 0.0941176 0 0 0 0 0.156863 0 0 0 0.06 0"/>
<feBlend mode="normal" in2="BackgroundImageFix" result="effect1_dropShadow_4152_719"/>
<feColorMatrix in="SourceAlpha" type="matrix" values="0 0 0 0 0 0 0 0 0 0 0 0 0 0 0 0 0 0 127 0" result="hardAlpha"/>
<feOffset dy="1"/>
<feGaussianBlur stdDeviation="1.5"/>
<feColorMatrix type="matrix" values="0 0 0 0 0.0627451 0 0 0 0 0.0941176 0 0 0 0 0.156863 0 0 0 0.1 0"/>
<feBlend mode="normal" in2="effect1_dropShadow_4152_719" result="effect2_dropShadow_4152_719"/>
<feBlend mode="normal" in="SourceGraphic" in2="effect2_dropShadow_4152_719" result="shape"/>
</filter>
<linearGradient id="paint0_linear_4152_719" x1="22.849" y1="41.9603" x2="23.193" y2="64.1393" gradientUnits="userSpaceOnUse">
<stop offset="0.02" stop-color="#0000FF"/>
<stop offset="0.08" stop-color="#0094FF"/>
<stop offset="0.16" stop-color="#48FF91"/>
<stop offset="0.42" stop-color="#0094FF"/>
<stop offset="0.68" stop-color="#0038FF"/>
<stop offset="0.9" stop-color="#0500FF"/>
</linearGradient>
<linearGradient id="paint1_linear_4152_719" x1="20.1508" y1="0" x2="20.1508" y2="40.3015" gradientUnits="userSpaceOnUse">
<stop stop-color="#174299"/>
<stop offset="1" stop-color="#001E59"/>
</linearGradient>
<radialGradient id="paint2_radial_4152_719" cx="0" cy="0" r="1" gradientUnits="userSpaceOnUse" gradientTransform="translate(45.8262 79.3119) rotate(-88.3117) scale(24.8526 24.8524)">
<stop offset="0.770277" stop-color="#FF4000"/>
<stop offset="1" stop-color="#8754C9"/>
</radialGradient>
<linearGradient id="paint3_linear_4152_719" x1="64.929" y1="80.9616" x2="70.6358" y2="81.1299" gradientUnits="userSpaceOnUse">
<stop stop-color="#FF4000"/>
<stop offset="1" stop-color="#8754C9"/>
</linearGradient>
<linearGradient id="paint4_linear_4152_719" x1="45.5515" y1="54.4362" x2="45.3598" y2="60.1423" gradientUnits="userSpaceOnUse">
<stop stop-color="#8754C9"/>
<stop offset="1" stop-color="#FF4000"/>
</linearGradient>
<radialGradient id="paint5_radial_4152_719" cx="0" cy="0" r="1" gradientUnits="userSpaceOnUse" gradientTransform="translate(45.8262 79.3119) rotate(-88.3117) scale(19.4791 19.4789)">
<stop offset="0.723929" stop-color="#FFF700"/>
<stop offset="1" stop-color="#FF9901"/>
</radialGradient>
<linearGradient id="paint6_linear_4152_719" x1="59.8941" y1="80.7926" x2="65.2653" y2="80.9509" gradientUnits="userSpaceOnUse">
<stop stop-color="#FFF700"/>
<stop offset="1" stop-color="#FF9901"/>
</linearGradient>
<linearGradient id="paint7_linear_4152_719" x1="45.2349" y1="65.1786" x2="45.4153" y2="59.8082" gradientUnits="userSpaceOnUse">
<stop stop-color="#FFF700"/>
<stop offset="1" stop-color="#FF9901"/>
</linearGradient>
<radialGradient id="paint8_radial_4152_719" cx="0" cy="0" r="1" gradientUnits="userSpaceOnUse" gradientTransform="translate(45.8262 79.3118) rotate(-88.3117) scale(14.1055 14.1054)">
<stop offset="0.59513" stop-color="#00AAFF"/>
<stop offset="1" stop-color="#01DA40"/>
</radialGradient>
<radialGradient id="paint9_radial_4152_719" cx="0" cy="0" r="1" gradientUnits="userSpaceOnUse" gradientTransform="translate(54.188 80.6009) rotate(1.924) scale(5.70938 15.2249)">
<stop stop-color="#00AAFF"/>
<stop offset="1" stop-color="#01DA40"/>
</radialGradient>
<radialGradient id="paint10_radial_4152_719" cx="0" cy="0" r="1" gradientUnits="userSpaceOnUse" gradientTransform="translate(45.0666 70.8855) rotate(-88.3117) scale(5.70938 108.266)">
<stop stop-color="#00AAFF"/>
<stop offset="1" stop-color="#01DA40"/>
</radialGradient>
<clipPath id="clip0_4152_719">
<rect width="33.9776" height="33.9776" fill="white" transform="translate(-1.90103 43.2872) rotate(-18.52)"/>
</clipPath>
<clipPath id="clip1_4152_719">
<rect width="40.3015" height="40.3015" fill="white" transform="matrix(0.999436 0.0335737 -0.0294627 0.999566 38.0293 47.4629)"/>
</clipPath>
<clipPath id="clip2_4152_719">
<rect width="40.3015" height="40.3015" fill="white" transform="matrix(0.999436 0.0335737 -0.0294627 0.999566 38.0293 47.4629)"/>
</clipPath>
</defs>
</svg>
