<svg width="80" height="59" viewBox="0 0 80 59" fill="none" xmlns="http://www.w3.org/2000/svg">
<g filter="url(#filter0_d_4201_1081)">
<circle cx="40" cy="25.5" r="25" fill="url(#paint0_linear_4201_1081)"/>
<path d="M30.0006 25.9494H30V25.9631V37.9132H45.2725L33.3156 25.9563L30.0006 25.9494Z" fill="white"/>
<path d="M30.0006 25.9494H30V25.9631V37.9132H45.2725L33.3156 25.9563L30.0006 25.9494Z" fill="url(#paint1_linear_4201_1081)"/>
<path d="M46.2958 25.9498L39.8026 32.443L45.2461 37.8865L51.7393 31.3933L46.2958 25.9498Z" fill="url(#paint2_linear_4201_1081)"/>
<path d="M45.2461 14.0138L39.8026 19.4573L46.2958 25.9504L51.7393 20.5069L45.2461 14.0138Z" fill="url(#paint3_linear_4201_1081)"/>
<path d="M30 29.2725L45.2725 14H30V25.9501H30.0006L30 29.2725Z" fill="white"/>
</g>
<defs>
<filter id="filter0_d_4201_1081" x="-3.60001" y="0" width="87.2" height="59" filterUnits="userSpaceOnUse" color-interpolation-filters="sRGB">
<feFlood flood-opacity="0" result="BackgroundImageFix"/>
<feColorMatrix in="SourceAlpha" type="matrix" values="0 0 0 0 0 0 0 0 0 0 0 0 0 0 0 0 0 0 127 0" result="hardAlpha"/>
<feOffset dy="4"/>
<feGaussianBlur stdDeviation="2"/>
<feComposite in2="hardAlpha" operator="out"/>
<feColorMatrix type="matrix" values="0 0 0 0 0 0 0 0 0 0 0 0 0 0 0 0 0 0 0.25 0"/>
<feBlend mode="normal" in2="BackgroundImageFix" result="effect1_dropShadow_4201_1081"/>
<feBlend mode="normal" in="SourceGraphic" in2="effect1_dropShadow_4201_1081" result="shape"/>
</filter>
<linearGradient id="paint0_linear_4201_1081" x1="40" y1="0.5" x2="40" y2="50.5" gradientUnits="userSpaceOnUse">
<stop offset="0.515625" stop-color="#1E273C"/>
<stop offset="1" stop-color="#1F6A62"/>
</linearGradient>
<linearGradient id="paint1_linear_4201_1081" x1="37.6362" y1="25.9494" x2="37.6362" y2="37.9132" gradientUnits="userSpaceOnUse">
<stop stop-color="#D2D2D2"/>
<stop offset="1" stop-color="white" stop-opacity="0"/>
</linearGradient>
<linearGradient id="paint2_linear_4201_1081" x1="43.0492" y1="29.1964" x2="48.4927" y2="34.6399" gradientUnits="userSpaceOnUse">
<stop stop-color="#E7E7E7"/>
<stop offset="1" stop-color="white"/>
</linearGradient>
<linearGradient id="paint3_linear_4201_1081" x1="42.5244" y1="16.7355" x2="49.0175" y2="23.2287" gradientUnits="userSpaceOnUse">
<stop stop-color="#D6D6D6"/>
<stop offset="1" stop-color="white"/>
</linearGradient>
</defs>
</svg>
